<?xml version="1.0" encoding="us-ascii" standalone="no"?><svg xmlns="http://www.w3.org/2000/svg" xmlns:xlink="http://www.w3.org/1999/xlink" contentStyleType="text/css" height="948px" preserveAspectRatio="none" style="width:876px;height:948px;background:#FFFFFF;" version="1.1" viewBox="0 0 876 948" width="876px" zoomAndPan="magnify"><defs/><g><text fill="#000000" font-family="sans-serif" font-size="14" font-weight="bold" lengthAdjust="spacing" textLength="48" x="407" y="22.9951">Model</text><!--cluster edu--><g id="cluster_edu"><path d="M8.5,43.2969 L38.5,43.2969 A3.75,3.75 0 0 1 41,45.7969 L48,65.5938 L866.5,65.5938 A2.5,2.5 0 0 1 869,68.0938 L869,938.7969 A2.5,2.5 0 0 1 866.5,941.2969 L8.5,941.2969 A2.5,2.5 0 0 1 6,938.7969 L6,45.7969 A2.5,2.5 0 0 1 8.5,43.2969 " fill="none" style="stroke:#000000;stroke-width:1.5;"/><line style="stroke:#000000;stroke-width:1.5;" x1="6" x2="48" y1="65.5938" y2="65.5938"/><text fill="#000000" font-family="sans-serif" font-size="14" font-weight="bold" lengthAdjust="spacing" textLength="29" x="10" y="58.292">edu</text></g><!--cluster ai_0_1_0--><g id="cluster_ai_0_1_0"><path d="M32.5,86.2969 L99.5,86.2969 A3.75,3.75 0 0 1 102,88.7969 L109,108.5938 L842.5,108.5938 A2.5,2.5 0 0 1 845,111.0938 L845,914.7969 A2.5,2.5 0 0 1 842.5,917.2969 L32.5,917.2969 A2.5,2.5 0 0 1 30,914.7969 L30,88.7969 A2.5,2.5 0 0 1 32.5,86.2969 " fill="none" style="stroke:#000000;stroke-width:1.5;"/><line style="stroke:#000000;stroke-width:1.5;" x1="30" x2="109" y1="108.5938" y2="108.5938"/><text fill="#000000" font-family="sans-serif" font-size="14" font-weight="bold" lengthAdjust="spacing" textLength="66" x="34" y="101.292">ai_0_1_0</text></g><!--class GradeLevel--><g id="elem_GradeLevel"><rect codeLine="4" fill="#F1F1F1" height="96.8906" id="GradeLevel" rx="2.5" ry="2.5" style="stroke:#181818;stroke-width:0.5;" width="121" x="259.5" y="796.2969"/><ellipse cx="278.1" cy="812.2969" fill="#808080" rx="11" ry="11" style="stroke:#181818;stroke-width:1.0;"/><path d="M276.8969,813.1719 L278.35,813.1719 L278.35,813.2813 C278.35,813.6875 278.3813,813.8438 278.4594,814 C278.6156,814.25 278.8969,814.4063 279.1938,814.4063 C279.4438,814.4063 279.7094,814.2656 279.8656,814.0469 C279.9906,813.8906 280.0219,813.7344 280.0219,813.2813 L280.0219,811.3594 C280.0219,811.2031 280.0219,811.1563 280.0063,811 C279.9438,810.5313 279.6313,810.2188 279.1781,810.2188 C278.9281,810.2188 278.6625,810.3594 278.4906,810.5781 C278.3813,810.75 278.35,810.9063 278.35,811.3594 L278.35,811.4844 L276.8969,811.4844 L276.8969,809.0781 L280.8813,809.0781 L280.8813,809.9375 C280.8813,810.3438 280.9125,810.5156 280.9906,810.6719 C281.1625,810.9219 281.4438,811.0781 281.725,811.0781 C281.9906,811.0781 282.2563,810.9375 282.4281,810.7188 C282.5375,810.5469 282.5688,810.4063 282.5688,809.9375 L282.5688,807.3906 L274.9438,807.3906 C274.5063,807.3906 274.3813,807.4063 274.225,807.5 C273.975,807.6563 273.8188,807.9531 273.8188,808.2344 C273.8188,808.5156 273.9594,808.7656 274.1781,808.9375 C274.3344,809.0469 274.5219,809.0781 274.9438,809.0781 L275.1938,809.0781 L275.1938,815.5938 L274.9438,815.5938 C274.5375,815.5938 274.3813,815.6094 274.225,815.7188 C273.975,815.8906 273.8188,816.1563 273.8188,816.4531 C273.8188,816.7188 273.9594,816.9688 274.1781,817.125 C274.3188,817.25 274.5531,817.2969 274.9438,817.2969 L282.9438,817.2969 L282.9438,814.7188 C282.9438,814.2813 282.9125,814.1406 282.8344,813.9844 C282.6625,813.7344 282.3813,813.5781 282.1,813.5781 C281.8344,813.5781 281.5688,813.6875 281.3969,813.9375 C281.2875,814.0938 281.2563,814.2344 281.2563,814.7188 L281.2563,815.5938 L276.8969,815.5938 L276.8969,813.1719 Z " fill="#000000"/><text fill="#000000" font-family="sans-serif" font-size="14" lengthAdjust="spacing" textLength="81" x="292.9" y="817.1436">GradeLevel</text><line style="stroke:#181818;stroke-width:0.5;" x1="260.5" x2="379.5" y1="828.2969" y2="828.2969"/><ellipse cx="270.5" cy="841.9453" fill="none" rx="3" ry="3" style="stroke:#038048;stroke-width:1.0;"/><text fill="#000000" font-family="sans-serif" font-size="14" lengthAdjust="spacing" textLength="95" x="279.5" y="845.292">ELEMENTARY</text><ellipse cx="270.5" cy="858.2422" fill="none" rx="3" ry="3" style="stroke:#038048;stroke-width:1.0;"/><text fill="#000000" font-family="sans-serif" font-size="14" lengthAdjust="spacing" textLength="55" x="279.5" y="861.5889">MIDDLE</text><ellipse cx="270.5" cy="874.5391" fill="none" rx="3" ry="3" style="stroke:#038048;stroke-width:1.0;"/><text fill="#000000" font-family="sans-serif" font-size="14" lengthAdjust="spacing" textLength="35" x="279.5" y="877.8857">HIGH</text><line style="stroke:#181818;stroke-width:0.5;" x1="260.5" x2="379.5" y1="885.1875" y2="885.1875"/></g><!--class Subject--><g id="elem_Subject"><rect codeLine="9" fill="#F1F1F1" height="113.1875" id="Subject" rx="2.5" ry="2.5" style="stroke:#181818;stroke-width:0.5;" width="88" x="602" y="788.2969"/><ellipse cx="617.45" cy="804.2969" fill="#808080" rx="11" ry="11" style="stroke:#181818;stroke-width:1.0;"/><path d="M616.2469,805.1719 L617.7,805.1719 L617.7,805.2813 C617.7,805.6875 617.7313,805.8438 617.8094,806 C617.9656,806.25 618.2469,806.4063 618.5438,806.4063 C618.7938,806.4063 619.0594,806.2656 619.2156,806.0469 C619.3406,805.8906 619.3719,805.7344 619.3719,805.2813 L619.3719,803.3594 C619.3719,803.2031 619.3719,803.1563 619.3563,803 C619.2938,802.5313 618.9813,802.2188 618.5281,802.2188 C618.2781,802.2188 618.0125,802.3594 617.8406,802.5781 C617.7313,802.75 617.7,802.9063 617.7,803.3594 L617.7,803.4844 L616.2469,803.4844 L616.2469,801.0781 L620.2313,801.0781 L620.2313,801.9375 C620.2313,802.3438 620.2625,802.5156 620.3406,802.6719 C620.5125,802.9219 620.7938,803.0781 621.075,803.0781 C621.3406,803.0781 621.6063,802.9375 621.7781,802.7188 C621.8875,802.5469 621.9188,802.4063 621.9188,801.9375 L621.9188,799.3906 L614.2938,799.3906 C613.8563,799.3906 613.7313,799.4063 613.575,799.5 C613.325,799.6563 613.1688,799.9531 613.1688,800.2344 C613.1688,800.5156 613.3094,800.7656 613.5281,800.9375 C613.6844,801.0469 613.8719,801.0781 614.2938,801.0781 L614.5438,801.0781 L614.5438,807.5938 L614.2938,807.5938 C613.8875,807.5938 613.7313,807.6094 613.575,807.7188 C613.325,807.8906 613.1688,808.1563 613.1688,808.4531 C613.1688,808.7188 613.3094,808.9688 613.5281,809.125 C613.6688,809.25 613.9031,809.2969 614.2938,809.2969 L622.2938,809.2969 L622.2938,806.7188 C622.2938,806.2813 622.2625,806.1406 622.1844,805.9844 C622.0125,805.7344 621.7313,805.5781 621.45,805.5781 C621.1844,805.5781 620.9188,805.6875 620.7469,805.9375 C620.6375,806.0938 620.6063,806.2344 620.6063,806.7188 L620.6063,807.5938 L616.2469,807.5938 L616.2469,805.1719 Z " fill="#000000"/><text fill="#000000" font-family="sans-serif" font-size="14" lengthAdjust="spacing" textLength="55" x="631.55" y="809.1436">Subject</text><line style="stroke:#181818;stroke-width:0.5;" x1="603" x2="689" y1="820.2969" y2="820.2969"/><ellipse cx="613" cy="833.9453" fill="none" rx="3" ry="3" style="stroke:#038048;stroke-width:1.0;"/><text fill="#000000" font-family="sans-serif" font-size="14" lengthAdjust="spacing" textLength="41" x="622" y="837.292">MATH</text><ellipse cx="613" cy="850.2422" fill="none" rx="3" ry="3" style="stroke:#038048;stroke-width:1.0;"/><text fill="#000000" font-family="sans-serif" font-size="14" lengthAdjust="spacing" textLength="61" x="622" y="853.5889">SCIENCE</text><ellipse cx="613" cy="866.5391" fill="none" rx="3" ry="3" style="stroke:#038048;stroke-width:1.0;"/><text fill="#000000" font-family="sans-serif" font-size="14" lengthAdjust="spacing" textLength="61" x="622" y="869.8857">ENGLISH</text><ellipse cx="613" cy="882.8359" fill="none" rx="3" ry="3" style="stroke:#038048;stroke-width:1.0;"/><text fill="#000000" font-family="sans-serif" font-size="14" lengthAdjust="spacing" textLength="62" x="622" y="886.1826">HISTORY</text><line style="stroke:#181818;stroke-width:0.5;" x1="603" x2="689" y1="893.4844" y2="893.4844"/></g><!--class Student--><g id="elem_Student"><rect codeLine="15" fill="#F1F1F1" height="96.8906" id="Student" rx="2.5" ry="2.5" style="stroke:#181818;stroke-width:0.5;" width="190" x="50" y="438.2969"/><ellipse cx="111.75" cy="454.2969" fill="#ADD1B2" rx="11" ry="11" style="stroke:#181818;stroke-width:1.0;"/><path d="M114.0938,449.9688 C113.1563,449.5313 112.5625,449.3906 111.6875,449.3906 C109.0625,449.3906 107.0625,451.4688 107.0625,454.1875 L107.0625,455.3125 C107.0625,457.8906 109.1719,459.7813 112.0625,459.7813 C113.2813,459.7813 114.4375,459.4844 115.1875,458.9375 C115.7656,458.5313 116.0938,458.0781 116.0938,457.6875 C116.0938,457.2344 115.7031,456.8438 115.2344,456.8438 C115.0156,456.8438 114.8125,456.9219 114.625,457.1094 C114.1719,457.5938 114.1719,457.5938 113.9844,457.6875 C113.5625,457.9531 112.875,458.0781 112.1094,458.0781 C110.0625,458.0781 108.7656,456.9844 108.7656,455.2813 L108.7656,454.1875 C108.7656,452.4063 110.0156,451.0938 111.75,451.0938 C112.3281,451.0938 112.9375,451.25 113.4063,451.5 C113.8906,451.7813 114.0625,452 114.1563,452.4063 C114.2188,452.8125 114.25,452.9375 114.3906,453.0625 C114.5313,453.2031 114.7656,453.3125 114.9844,453.3125 C115.25,453.3125 115.5156,453.1719 115.6875,452.9531 C115.7969,452.7969 115.8281,452.6094 115.8281,452.1875 L115.8281,450.7656 C115.8281,450.3281 115.8125,450.2031 115.7188,450.0469 C115.5625,449.7813 115.2813,449.6406 114.9844,449.6406 C114.6875,449.6406 114.4844,449.7344 114.2656,450.0469 L114.0938,449.9688 Z " fill="#000000"/><text fill="#000000" font-family="sans-serif" font-size="14" lengthAdjust="spacing" textLength="58" x="132.25" y="459.1436">Student</text><line style="stroke:#181818;stroke-width:0.5;" x1="51" x2="239" y1="470.2969" y2="470.2969"/><ellipse cx="61" cy="483.9453" fill="none" rx="3" ry="3" style="stroke:#038048;stroke-width:1.0;"/><text fill="#000000" font-family="sans-serif" font-size="14" lengthAdjust="spacing" textLength="88" x="70" y="487.292">String name</text><ellipse cx="61" cy="500.2422" fill="none" rx="3" ry="3" style="stroke:#038048;stroke-width:1.0;"/><text fill="#000000" font-family="sans-serif" font-size="14" lengthAdjust="spacing" textLength="164" x="70" y="503.5889">GradeLevel gradeLevel</text><ellipse cx="61" cy="516.5391" fill="none" rx="3" ry="3" style="stroke:#038048;stroke-width:1.0;"/><text fill="#000000" font-family="sans-serif" font-size="14" lengthAdjust="spacing" textLength="82" x="70" y="519.8857">Double gpa</text><line style="stroke:#181818;stroke-width:0.5;" x1="51" x2="239" y1="527.1875" y2="527.1875"/></g><!--class Teacher--><g id="elem_Teacher"><rect codeLine="21" fill="#F1F1F1" height="96.8906" id="Teacher" rx="2.5" ry="2.5" style="stroke:#181818;stroke-width:0.5;" width="190" x="639" y="589.7969"/><ellipse cx="700.75" cy="605.7969" fill="#ADD1B2" rx="11" ry="11" style="stroke:#181818;stroke-width:1.0;"/><path d="M703.0938,601.4688 C702.1563,601.0313 701.5625,600.8906 700.6875,600.8906 C698.0625,600.8906 696.0625,602.9688 696.0625,605.6875 L696.0625,606.8125 C696.0625,609.3906 698.1719,611.2813 701.0625,611.2813 C702.2813,611.2813 703.4375,610.9844 704.1875,610.4375 C704.7656,610.0313 705.0938,609.5781 705.0938,609.1875 C705.0938,608.7344 704.7031,608.3438 704.2344,608.3438 C704.0156,608.3438 703.8125,608.4219 703.625,608.6094 C703.1719,609.0938 703.1719,609.0938 702.9844,609.1875 C702.5625,609.4531 701.875,609.5781 701.1094,609.5781 C699.0625,609.5781 697.7656,608.4844 697.7656,606.7813 L697.7656,605.6875 C697.7656,603.9063 699.0156,602.5938 700.75,602.5938 C701.3281,602.5938 701.9375,602.75 702.4063,603 C702.8906,603.2813 703.0625,603.5 703.1563,603.9063 C703.2188,604.3125 703.25,604.4375 703.3906,604.5625 C703.5313,604.7031 703.7656,604.8125 703.9844,604.8125 C704.25,604.8125 704.5156,604.6719 704.6875,604.4531 C704.7969,604.2969 704.8281,604.1094 704.8281,603.6875 L704.8281,602.2656 C704.8281,601.8281 704.8125,601.7031 704.7188,601.5469 C704.5625,601.2813 704.2813,601.1406 703.9844,601.1406 C703.6875,601.1406 703.4844,601.2344 703.2656,601.5469 L703.0938,601.4688 Z " fill="#000000"/><text fill="#000000" font-family="sans-serif" font-size="14" lengthAdjust="spacing" textLength="58" x="721.25" y="610.6436">Teacher</text><line style="stroke:#181818;stroke-width:0.5;" x1="640" x2="828" y1="621.7969" y2="621.7969"/><ellipse cx="650" cy="635.4453" fill="none" rx="3" ry="3" style="stroke:#038048;stroke-width:1.0;"/><text fill="#000000" font-family="sans-serif" font-size="14" lengthAdjust="spacing" textLength="88" x="659" y="638.792">String name</text><ellipse cx="650" cy="651.7422" fill="none" rx="3" ry="3" style="stroke:#038048;stroke-width:1.0;"/><text fill="#000000" font-family="sans-serif" font-size="14" lengthAdjust="spacing" textLength="164" x="659" y="655.0889">GradeLevel gradeLevel</text><ellipse cx="650" cy="668.0391" fill="none" rx="3" ry="3" style="stroke:#038048;stroke-width:1.0;"/><text fill="#000000" font-family="sans-serif" font-size="14" lengthAdjust="spacing" textLength="112" x="659" y="671.3857">Subject subject</text><line style="stroke:#181818;stroke-width:0.5;" x1="640" x2="828" y1="678.6875" y2="678.6875"/></g><!--class Course--><g id="elem_Course"><rect codeLine="28" fill="#F1F1F1" height="113.1875" id="Course" rx="2.5" ry="2.5" style="stroke:#181818;stroke-width:0.5;" width="190" x="189" y="581.7969"/><ellipse cx="255.25" cy="597.7969" fill="#ADD1B2" rx="11" ry="11" style="stroke:#181818;stroke-width:1.0;"/><path d="M257.5938,593.4688 C256.6563,593.0313 256.0625,592.8906 255.1875,592.8906 C252.5625,592.8906 250.5625,594.9688 250.5625,597.6875 L250.5625,598.8125 C250.5625,601.3906 252.6719,603.2813 255.5625,603.2813 C256.7813,603.2813 257.9375,602.9844 258.6875,602.4375 C259.2656,602.0313 259.5938,601.5781 259.5938,601.1875 C259.5938,600.7344 259.2031,600.3438 258.7344,600.3438 C258.5156,600.3438 258.3125,600.4219 258.125,600.6094 C257.6719,601.0938 257.6719,601.0938 257.4844,601.1875 C257.0625,601.4531 256.375,601.5781 255.6094,601.5781 C253.5625,601.5781 252.2656,600.4844 252.2656,598.7813 L252.2656,597.6875 C252.2656,595.9063 253.5156,594.5938 255.25,594.5938 C255.8281,594.5938 256.4375,594.75 256.9063,595 C257.3906,595.2813 257.5625,595.5 257.6563,595.9063 C257.7188,596.3125 257.75,596.4375 257.8906,596.5625 C258.0313,596.7031 258.2656,596.8125 258.4844,596.8125 C258.75,596.8125 259.0156,596.6719 259.1875,596.4531 C259.2969,596.2969 259.3281,596.1094 259.3281,595.6875 L259.3281,594.2656 C259.3281,593.8281 259.3125,593.7031 259.2188,593.5469 C259.0625,593.2813 258.7813,593.1406 258.4844,593.1406 C258.1875,593.1406 257.9844,593.2344 257.7656,593.5469 L257.5938,593.4688 Z " fill="#000000"/><text fill="#000000" font-family="sans-serif" font-size="14" lengthAdjust="spacing" textLength="49" x="275.75" y="602.6436">Course</text><line style="stroke:#181818;stroke-width:0.5;" x1="190" x2="378" y1="613.7969" y2="613.7969"/><ellipse cx="200" cy="627.4453" fill="none" rx="3" ry="3" style="stroke:#038048;stroke-width:1.0;"/><text fill="#000000" font-family="sans-serif" font-size="14" lengthAdjust="spacing" textLength="88" x="209" y="630.792">String name</text><ellipse cx="200" cy="643.7422" fill="none" rx="3" ry="3" style="stroke:#038048;stroke-width:1.0;"/><text fill="#000000" font-family="sans-serif" font-size="14" lengthAdjust="spacing" textLength="164" x="209" y="647.0889">GradeLevel gradeLevel</text><ellipse cx="200" cy="660.0391" fill="none" rx="3" ry="3" style="stroke:#038048;stroke-width:1.0;"/><text fill="#000000" font-family="sans-serif" font-size="14" lengthAdjust="spacing" textLength="112" x="209" y="663.3857">Subject subject</text><ellipse cx="200" cy="676.3359" fill="none" rx="3" ry="3" style="stroke:#038048;stroke-width:1.0;"/><text fill="#000000" font-family="sans-serif" font-size="14" lengthAdjust="spacing" textLength="119" x="209" y="679.6826">Double difficulty</text><line style="stroke:#181818;stroke-width:0.5;" x1="190" x2="378" y1="686.9844" y2="686.9844"/></g><!--class Assignment--><g id="elem_Assignment"><rect codeLine="36" fill="#F1F1F1" height="113.1875" id="Assignment" rx="2.5" ry="2.5" style="stroke:#181818;stroke-width:0.5;" width="162" x="194" y="295.2969"/><ellipse cx="229.25" cy="311.2969" fill="#ADD1B2" rx="11" ry="11" style="stroke:#181818;stroke-width:1.0;"/><path d="M231.5938,306.9688 C230.6563,306.5313 230.0625,306.3906 229.1875,306.3906 C226.5625,306.3906 224.5625,308.4688 224.5625,311.1875 L224.5625,312.3125 C224.5625,314.8906 226.6719,316.7813 229.5625,316.7813 C230.7813,316.7813 231.9375,316.4844 232.6875,315.9375 C233.2656,315.5313 233.5938,315.0781 233.5938,314.6875 C233.5938,314.2344 233.2031,313.8438 232.7344,313.8438 C232.5156,313.8438 232.3125,313.9219 232.125,314.1094 C231.6719,314.5938 231.6719,314.5938 231.4844,314.6875 C231.0625,314.9531 230.375,315.0781 229.6094,315.0781 C227.5625,315.0781 226.2656,313.9844 226.2656,312.2813 L226.2656,311.1875 C226.2656,309.4063 227.5156,308.0938 229.25,308.0938 C229.8281,308.0938 230.4375,308.25 230.9063,308.5 C231.3906,308.7813 231.5625,309 231.6563,309.4063 C231.7188,309.8125 231.75,309.9375 231.8906,310.0625 C232.0313,310.2031 232.2656,310.3125 232.4844,310.3125 C232.75,310.3125 233.0156,310.1719 233.1875,309.9531 C233.2969,309.7969 233.3281,309.6094 233.3281,309.1875 L233.3281,307.7656 C233.3281,307.3281 233.3125,307.2031 233.2188,307.0469 C233.0625,306.7813 232.7813,306.6406 232.4844,306.6406 C232.1875,306.6406 231.9844,306.7344 231.7656,307.0469 L231.5938,306.9688 Z " fill="#000000"/><text fill="#000000" font-family="sans-serif" font-size="14" lengthAdjust="spacing" textLength="85" x="247.75" y="316.1436">Assignment</text><line style="stroke:#181818;stroke-width:0.5;" x1="195" x2="355" y1="327.2969" y2="327.2969"/><ellipse cx="205" cy="340.9453" fill="none" rx="3" ry="3" style="stroke:#038048;stroke-width:1.0;"/><text fill="#000000" font-family="sans-serif" font-size="14" lengthAdjust="spacing" textLength="88" x="214" y="344.292">String name</text><ellipse cx="205" cy="357.2422" fill="none" rx="3" ry="3" style="stroke:#038048;stroke-width:1.0;"/><text fill="#000000" font-family="sans-serif" font-size="14" lengthAdjust="spacing" textLength="100" x="214" y="360.5889">Course course</text><ellipse cx="205" cy="373.5391" fill="none" rx="3" ry="3" style="stroke:#038048;stroke-width:1.0;"/><text fill="#000000" font-family="sans-serif" font-size="14" lengthAdjust="spacing" textLength="130" x="214" y="376.8857">String description</text><ellipse cx="205" cy="389.8359" fill="none" rx="3" ry="3" style="stroke:#038048;stroke-width:1.0;"/><text fill="#000000" font-family="sans-serif" font-size="14" lengthAdjust="spacing" textLength="136" x="214" y="393.1826">DateTime dueDate</text><line style="stroke:#181818;stroke-width:0.5;" x1="195" x2="355" y1="400.4844" y2="400.4844"/></g><!--class Grade--><g id="elem_Grade"><rect codeLine="43" fill="#F1F1F1" height="96.8906" id="Grade" rx="2.5" ry="2.5" style="stroke:#181818;stroke-width:0.5;" width="198" x="102" y="121.2969"/><ellipse cx="175.25" cy="137.2969" fill="#ADD1B2" rx="11" ry="11" style="stroke:#181818;stroke-width:1.0;"/><path d="M177.5938,132.9688 C176.6563,132.5313 176.0625,132.3906 175.1875,132.3906 C172.5625,132.3906 170.5625,134.4688 170.5625,137.1875 L170.5625,138.3125 C170.5625,140.8906 172.6719,142.7813 175.5625,142.7813 C176.7813,142.7813 177.9375,142.4844 178.6875,141.9375 C179.2656,141.5313 179.5938,141.0781 179.5938,140.6875 C179.5938,140.2344 179.2031,139.8438 178.7344,139.8438 C178.5156,139.8438 178.3125,139.9219 178.125,140.1094 C177.6719,140.5938 177.6719,140.5938 177.4844,140.6875 C177.0625,140.9531 176.375,141.0781 175.6094,141.0781 C173.5625,141.0781 172.2656,139.9844 172.2656,138.2813 L172.2656,137.1875 C172.2656,135.4063 173.5156,134.0938 175.25,134.0938 C175.8281,134.0938 176.4375,134.25 176.9063,134.5 C177.3906,134.7813 177.5625,135 177.6563,135.4063 C177.7188,135.8125 177.75,135.9375 177.8906,136.0625 C178.0313,136.2031 178.2656,136.3125 178.4844,136.3125 C178.75,136.3125 179.0156,136.1719 179.1875,135.9531 C179.2969,135.7969 179.3281,135.6094 179.3281,135.1875 L179.3281,133.7656 C179.3281,133.3281 179.3125,133.2031 179.2188,133.0469 C179.0625,132.7813 178.7813,132.6406 178.4844,132.6406 C178.1875,132.6406 177.9844,132.7344 177.7656,133.0469 L177.5938,132.9688 Z " fill="#000000"/><text fill="#000000" font-family="sans-serif" font-size="14" lengthAdjust="spacing" textLength="43" x="195.75" y="142.1436">Grade</text><line style="stroke:#181818;stroke-width:0.5;" x1="103" x2="299" y1="153.2969" y2="153.2969"/><ellipse cx="113" cy="166.9453" fill="none" rx="3" ry="3" style="stroke:#038048;stroke-width:1.0;"/><text fill="#000000" font-family="sans-serif" font-size="14" lengthAdjust="spacing" textLength="172" x="122" y="170.292">Assignment assignment</text><ellipse cx="113" cy="183.2422" fill="none" rx="3" ry="3" style="stroke:#038048;stroke-width:1.0;"/><text fill="#000000" font-family="sans-serif" font-size="14" lengthAdjust="spacing" textLength="118" x="122" y="186.5889">Student student</text><ellipse cx="113" cy="199.5391" fill="none" rx="3" ry="3" style="stroke:#038048;stroke-width:1.0;"/><text fill="#000000" font-family="sans-serif" font-size="14" lengthAdjust="spacing" textLength="94" x="122" y="202.8857">Double score</text><line style="stroke:#181818;stroke-width:0.5;" x1="103" x2="299" y1="210.1875" y2="210.1875"/></g><!--class AIModel--><g id="elem_AIModel"><rect codeLine="50" fill="#F1F1F1" height="145.7813" id="AIModel" rx="2.5" ry="2.5" style="stroke:#181818;stroke-width:0.5;" width="190" x="414" y="565.2969"/><ellipse cx="476.25" cy="581.2969" fill="#ADD1B2" rx="11" ry="11" style="stroke:#181818;stroke-width:1.0;"/><path d="M478.5938,576.9688 C477.6563,576.5313 477.0625,576.3906 476.1875,576.3906 C473.5625,576.3906 471.5625,578.4688 471.5625,581.1875 L471.5625,582.3125 C471.5625,584.8906 473.6719,586.7813 476.5625,586.7813 C477.7813,586.7813 478.9375,586.4844 479.6875,585.9375 C480.2656,585.5313 480.5938,585.0781 480.5938,584.6875 C480.5938,584.2344 480.2031,583.8438 479.7344,583.8438 C479.5156,583.8438 479.3125,583.9219 479.125,584.1094 C478.6719,584.5938 478.6719,584.5938 478.4844,584.6875 C478.0625,584.9531 477.375,585.0781 476.6094,585.0781 C474.5625,585.0781 473.2656,583.9844 473.2656,582.2813 L473.2656,581.1875 C473.2656,579.4063 474.5156,578.0938 476.25,578.0938 C476.8281,578.0938 477.4375,578.25 477.9063,578.5 C478.3906,578.7813 478.5625,579 478.6563,579.4063 C478.7188,579.8125 478.75,579.9375 478.8906,580.0625 C479.0313,580.2031 479.2656,580.3125 479.4844,580.3125 C479.75,580.3125 480.0156,580.1719 480.1875,579.9531 C480.2969,579.7969 480.3281,579.6094 480.3281,579.1875 L480.3281,577.7656 C480.3281,577.3281 480.3125,577.2031 480.2188,577.0469 C480.0625,576.7813 479.7813,576.6406 479.4844,576.6406 C479.1875,576.6406 478.9844,576.7344 478.7656,577.0469 L478.5938,576.9688 Z " fill="#000000"/><text fill="#000000" font-family="sans-serif" font-size="14" lengthAdjust="spacing" textLength="57" x="496.75" y="586.1436">AIModel</text><line style="stroke:#181818;stroke-width:0.5;" x1="415" x2="603" y1="597.2969" y2="597.2969"/><ellipse cx="425" cy="610.9453" fill="none" rx="3" ry="3" style="stroke:#038048;stroke-width:1.0;"/><text fill="#000000" font-family="sans-serif" font-size="14" lengthAdjust="spacing" textLength="88" x="434" y="614.292">String name</text><ellipse cx="425" cy="627.2422" fill="none" rx="3" ry="3" style="stroke:#038048;stroke-width:1.0;"/><text fill="#000000" font-family="sans-serif" font-size="14" lengthAdjust="spacing" textLength="130" x="434" y="630.5889">String description</text><ellipse cx="425" cy="643.5391" fill="none" rx="3" ry="3" style="stroke:#038048;stroke-width:1.0;"/><text fill="#000000" font-family="sans-serif" font-size="14" lengthAdjust="spacing" textLength="112" x="434" y="646.8857">String modelUrl</text><ellipse cx="425" cy="659.8359" fill="none" rx="3" ry="3" style="stroke:#038048;stroke-width:1.0;"/><text fill="#000000" font-family="sans-serif" font-size="14" lengthAdjust="spacing" textLength="164" x="434" y="663.1826">GradeLevel gradeLevel</text><ellipse cx="425" cy="676.1328" fill="none" rx="3" ry="3" style="stroke:#038048;stroke-width:1.0;"/><text fill="#000000" font-family="sans-serif" font-size="14" lengthAdjust="spacing" textLength="112" x="434" y="679.4795">Subject subject</text><ellipse cx="425" cy="692.4297" fill="none" rx="3" ry="3" style="stroke:#038048;stroke-width:1.0;"/><text fill="#000000" font-family="sans-serif" font-size="14" lengthAdjust="spacing" textLength="117" x="434" y="695.7764">Double accuracy</text><line style="stroke:#181818;stroke-width:0.5;" x1="415" x2="603" y1="703.0781" y2="703.0781"/></g><!--reverse link Student to GradeLevel--><g id="link_Student_GradeLevel"><path codeLine="20" d="M104.659,547.3619 C101.982,553.2419 99.685,559.2679 98,565.2969 C80.5311,627.7899 65.9638,654.8679 98,711.2969 C132.292,771.6999 206.247,807.4939 259.382,826.3579 " fill="none" id="Student-backto-GradeLevel" style="stroke:#181818;stroke-width:1.0;"/><polygon fill="#181818" points="110.614,535.5469,104.3414,539.1043,105.2127,546.2625,111.4852,542.7052,110.614,535.5469" style="stroke:#181818;stroke-width:1.0;"/><text fill="#000000" font-family="sans-serif" font-size="13" lengthAdjust="spacing" textLength="71" x="99" y="642.8638">gradeLevel</text><text fill="#000000" font-family="sans-serif" font-size="13" lengthAdjust="spacing" textLength="8" x="97.4559" y="555.1886">1</text><text fill="#000000" font-family="sans-serif" font-size="13" lengthAdjust="spacing" textLength="8" x="243.5067" y="820.2782">1</text></g><!--reverse link Teacher to GradeLevel--><g id="link_Teacher_GradeLevel"><path codeLine="26" d="M655.163,693.6439 C644.274,700.0559 633.036,706.1409 622,711.2969 C581.501,730.2199 567.249,724.0699 526,741.2969 C511.139,747.5029 508.34,750.9669 494,758.2969 C456.538,777.4459 414.175,798.2799 380.629,814.5869 " fill="none" id="Teacher-backto-GradeLevel" style="stroke:#181818;stroke-width:1.0;"/><polygon fill="#181818" points="666.362,686.8689,659.1579,686.5519,656.0945,693.08,663.2986,693.3969,666.362,686.8689" style="stroke:#181818;stroke-width:1.0;"/><text fill="#000000" font-family="sans-serif" font-size="13" lengthAdjust="spacing" textLength="71" x="527" y="754.3638">gradeLevel</text><text fill="#000000" font-family="sans-serif" font-size="13" lengthAdjust="spacing" textLength="8" x="648.2879" y="706.8379">1</text><text fill="#000000" font-family="sans-serif" font-size="13" lengthAdjust="spacing" textLength="8" x="388.5057" y="807.0726">1</text></g><!--reverse link Teacher to Subject--><g id="link_Teacher_Subject"><path codeLine="27" d="M716.87,699.5829 C710.753,718.6709 703.296,739.6469 695,758.2969 C690.619,768.1449 685.427,778.3239 680.088,788.0749 " fill="none" id="Teacher-backto-Subject" style="stroke:#181818;stroke-width:1.0;"/><polygon fill="#181818" points="720.788,687.0409,715.1812,691.5756,717.2107,698.4953,722.8175,693.9605,720.788,687.0409" style="stroke:#181818;stroke-width:1.0;"/><text fill="#000000" font-family="sans-serif" font-size="13" lengthAdjust="spacing" textLength="46" x="702" y="754.3638">subject</text><text fill="#000000" font-family="sans-serif" font-size="13" lengthAdjust="spacing" textLength="8" x="710.4751" y="706.6818">1</text><text fill="#000000" font-family="sans-serif" font-size="13" lengthAdjust="spacing" textLength="8" x="675.755" y="777.3114">1</text></g><!--reverse link Course to GradeLevel--><g id="link_Course_GradeLevel"><path codeLine="34" d="M220.252,706.2719 C211.463,722.9959 207.865,741.0789 216,758.2969 C225.435,778.2689 242.076,795.1459 259.317,808.4929 " fill="none" id="Course-backto-GradeLevel" style="stroke:#181818;stroke-width:1.0;"/><polygon fill="#181818" points="227.085,694.9379,220.5613,698.0106,220.8886,705.2143,227.4122,702.1415,227.085,694.9379" style="stroke:#181818;stroke-width:1.0;"/><text fill="#000000" font-family="sans-serif" font-size="13" lengthAdjust="spacing" textLength="71" x="217" y="754.3638">gradeLevel</text><text fill="#000000" font-family="sans-serif" font-size="13" lengthAdjust="spacing" textLength="8" x="211.2803" y="715.2193">1</text><text fill="#000000" font-family="sans-serif" font-size="13" lengthAdjust="spacing" textLength="8" x="243.4338" y="800.2359">1</text></g><!--reverse link Course to Subject--><g id="link_Course_Subject"><path codeLine="35" d="M308.481,706.6109 C318.228,725.6089 331.211,744.7649 348,758.2969 C387.287,789.9619 528.884,821.1089 601.848,835.5099 " fill="none" id="Course-backto-Subject" style="stroke:#181818;stroke-width:1.0;"/><polygon fill="#181818" points="302.826,694.8539,301.8227,701.9948,308.0284,705.6675,309.0318,698.5266,302.826,694.8539" style="stroke:#181818;stroke-width:1.0;"/><text fill="#000000" font-family="sans-serif" font-size="13" lengthAdjust="spacing" textLength="46" x="349" y="754.3638">subject</text><text fill="#000000" font-family="sans-serif" font-size="13" lengthAdjust="spacing" textLength="8" x="296.7256" y="715.1246">1</text><text fill="#000000" font-family="sans-serif" font-size="13" lengthAdjust="spacing" textLength="8" x="585.8728" y="829.7919">1</text></g><!--reverse link Assignment to Course--><g id="link_Assignment_Course"><path codeLine="42" d="M277.17,421.3779 C278.72,470.4029 280.781,535.5529 282.232,581.4219 " fill="none" id="Assignment-backto-Course" style="stroke:#181818;stroke-width:1.0;"/><polygon fill="#181818" points="276.757,408.3269,272.9489,414.4505,277.1368,420.3209,280.9449,414.1973,276.757,408.3269" style="stroke:#181818;stroke-width:1.0;"/><text fill="#000000" font-family="sans-serif" font-size="13" lengthAdjust="spacing" textLength="43" x="282" y="491.3638">course</text><text fill="#000000" font-family="sans-serif" font-size="13" lengthAdjust="spacing" textLength="8" x="268.4696" y="428.5941">1</text><text fill="#000000" font-family="sans-serif" font-size="13" lengthAdjust="spacing" textLength="8" x="273.529" y="570.6397">1</text></g><!--reverse link Grade to Assignment--><g id="link_Grade_Assignment"><path codeLine="48" d="M225.669,230.8019 C234.206,251.5689 243.733,274.7409 252.12,295.1439 " fill="none" id="Grade-backto-Assignment" style="stroke:#181818;stroke-width:1.0;"/><polygon fill="#181818" points="220.636,218.5609,219.2176,225.6311,225.1984,229.6597,226.6168,222.5895,220.636,218.5609" style="stroke:#181818;stroke-width:1.0;"/><text fill="#000000" font-family="sans-serif" font-size="13" lengthAdjust="spacing" textLength="75" x="239" y="261.3638">assignment</text><text fill="#000000" font-family="sans-serif" font-size="13" lengthAdjust="spacing" textLength="8" x="214.7371" y="238.2045">1</text><text fill="#000000" font-family="sans-serif" font-size="13" lengthAdjust="spacing" textLength="8" x="240.844" y="284.3888">1</text></g><!--reverse link Grade to Student--><g id="link_Grade_Student"><path codeLine="49" d="M179.536,230.9469 C177.848,236.7679 176.298,242.6179 175,248.2969 C160.186,313.1219 152.171,389.6889 148.242,437.9989 " fill="none" id="Grade-backto-Student" style="stroke:#181818;stroke-width:1.0;"/><polygon fill="#181818" points="183.407,218.3299,177.8232,222.8929,179.8875,229.8022,185.4714,225.2392,183.407,218.3299" style="stroke:#181818;stroke-width:1.0;"/><text fill="#000000" font-family="sans-serif" font-size="13" lengthAdjust="spacing" textLength="49" x="176" y="261.3638">student</text><text fill="#000000" font-family="sans-serif" font-size="13" lengthAdjust="spacing" textLength="8" x="172.3705" y="238.2934">1</text><text fill="#000000" font-family="sans-serif" font-size="13" lengthAdjust="spacing" textLength="8" x="140.1354" y="427.1659">1</text></g><!--reverse link AIModel to GradeLevel--><g id="link_AIModel_GradeLevel"><path codeLine="58" d="M433.447,721.0459 C409.936,746.4849 384.793,773.6909 364.167,796.0079 " fill="none" id="AIModel-backto-GradeLevel" style="stroke:#181818;stroke-width:1.0;"/><polygon fill="#181818" points="442.366,711.3959,435.3561,713.0876,434.2216,720.2089,441.2315,718.5172,442.366,711.3959" style="stroke:#181818;stroke-width:1.0;"/><text fill="#000000" font-family="sans-serif" font-size="13" lengthAdjust="spacing" textLength="71" x="416" y="754.3638">gradeLevel</text><text fill="#000000" font-family="sans-serif" font-size="13" lengthAdjust="spacing" textLength="8" x="427.6337" y="731.1616">1</text><text fill="#000000" font-family="sans-serif" font-size="13" lengthAdjust="spacing" textLength="8" x="361.8155" y="785.1762">1</text></g><!--reverse link AIModel to Subject--><g id="link_AIModel_Subject"><path codeLine="59" d="M593.417,722.0319 C598.29,728.3349 602.876,734.7839 607,741.2969 C616.065,755.6139 623.541,772.3639 629.437,788.1259 " fill="none" id="AIModel-backto-Subject" style="stroke:#181818;stroke-width:1.0;"/><polygon fill="#181818" points="584.976,711.5759,585.6323,718.7571,592.5134,720.9133,591.8572,713.7321,584.976,711.5759" style="stroke:#181818;stroke-width:1.0;"/><text fill="#000000" font-family="sans-serif" font-size="13" lengthAdjust="spacing" textLength="46" x="616" y="754.3638">subject</text><text fill="#000000" font-family="sans-serif" font-size="13" lengthAdjust="spacing" textLength="8" x="583.6113" y="731.1058">1</text><text fill="#000000" font-family="sans-serif" font-size="13" lengthAdjust="spacing" textLength="8" x="618.9309" y="777.3686">1</text></g><!--SRC=[hPHTRu8m58Rl-HMDL_lIw2qnIumsGW8k6UnYLwQM8-jImFHZYLdstwUK4bIOS-xgd1PupllsdAAOuk24HGBSWJnHvP9o8YM2H0y8MmwNe-LmC1SaWG0-WAFn6DtWXrJ0zXOzFg9F1o5qZt20Gxo89y-lPXtwirc0JUxvSy_vQiD6UlKEL7KmmqdicIoQ-dWnhN1uCG_yoBFiA7xQ5Mt7Avr0hYmlKeBbASf91cQZuIgjK_DeLkWL1vHko0xT2ksDUkYktozZrrcvJMwBm1W8VGFn5u7swAI9noej-MALbr6i2hVMqU9oMcWXuJzCDbkJiFMQKStLzjXxLUyww-SWlt8-aPAbUVRJ35PrQ1aEtab0Ki4sYXLvPPmeY5csiwvXdn_xRbJhb5sLSst1hhjkzJQOf4wjJ7CHf8a7pP6q42Vw3BXJMgEKsons2SDgScjLRLtnonzUPqkwph_Qp_OVlmX-rVGIIhKWz6HshRRhXlSivMHwlm40]--></g></svg>